<?xml version="1.0" encoding="UTF-8"?>
<svg id="_レイヤー_2" data-name="レイヤー 2" xmlns="http://www.w3.org/2000/svg" viewBox="0 0 399.12 100.93">
  <defs>
    <style>
      .cls-1 {
        fill: #e80008;
        stroke-width: 0px;
      }
    </style>
  </defs>
  <g id="_02.色" data-name="02.色">
    <g>
      <path class="cls-1" d="m257.79,29.24c-.09,0-.18,0-.25,0l-19.73.15.47-4.61c10.51-.1,17.19-.15,20.38-.15,4.35,0,7.38-2.66,7.91-6.93.33-2.71-.66-4.47-1.54-5.47-.92-1.04-2.66-2.29-5.69-2.29-5.2,0-11.85.07-19.78.2.08-.93.16-1.69.23-2.3v-.14c.25-2.74-.78-4.5-1.68-5.49-1.33-1.45-3.24-2.21-5.54-2.21-4.51,0-7.7,2.85-7.92,7.07l-.24,3.33c-16.21.29-27.89.56-34.68.79-3.96.03-6.83,2.64-7.32,6.64-.36,2.96.64,4.81,1.54,5.83,1.21,1.37,3,2.13,5.02,2.13.12,0,.25,0,.26,0l33.96-.76c-.13,1.35-.27,2.84-.43,4.46-13.43.19-23.15.46-35.26.82-4.15.14-7.04,2.72-7.53,6.74-.34,2.78.65,4.56,1.54,5.57.89,1,2.53,2.2,5.31,2.2.11,0,.23,0,.35,0,9.66-.34,18.85-.58,34.08-.73-.03.25-.05.48-.08.69l-.71,5.77c-3.75-.71-7.56-1.08-11.34-1.08-7.71,0-14.59,1.82-20.45,5.41-7.21,4.42-11.36,10.68-12.33,18.61-.96,7.79,1.3,14.04,6.7,18.57,4.62,3.84,10.74,5.79,18.18,5.79,9.04,0,16.49-2.76,22.14-8.19,4.92-4.62,8.12-10.83,9.53-18.49,4.46,2.77,9.31,6.46,14.45,11.01,1.31,1.36,3.02,2.07,4.95,2.07,2.09,0,3.99-.82,5.49-2.36,1.34-1.38,2.13-2.98,2.35-4.76.21-1.73-.1-4.31-2.82-6.81-7.48-6.6-15.01-11.66-22.39-15.05l1.04-8.45.02-.25c.03-.63.11-1.5.24-2.58,5.64-.08,12.13-.12,20.7-.12,4.29,0,7.28-2.62,7.8-6.83.34-2.76-.65-4.54-1.54-5.54-.9-1.01-2.56-2.22-5.41-2.22m-55.87,53.8c-3.68,0-6.59-.77-8.65-2.28-1.96-1.45-2.65-3.3-2.3-6.17.42-3.42,2.27-5.95,5.82-7.92,3.37-1.86,7.3-2.8,11.7-2.8,3.37,0,6.79.42,10.19,1.25-1.58,12.4-6.75,17.93-16.76,17.93"/>
      <path class="cls-1" d="m326.31,83.66c-17.63-10.27-31.51-19.37-41.26-27.04-2.92-2.31-3.84-4.03-3.75-4.81,0-.02.44-2.41,8.59-6.96,17.12-9.47,33.23-17.53,47.88-23.95,2.74-1.23,4.51-3.57,4.86-6.43.36-2.94-.68-4.82-1.62-5.88-.96-1.08-2.74-2.36-5.85-2.36-1.25,0-2.55.35-3.91,1.04-18.03,8.55-34.63,17.14-49.34,25.54-10.35,5.97-15.75,11.85-16.5,17.99-.47,3.84.45,7.47,2.77,10.84l.12.17c1.22,1.58,3.3,3.55,6.33,6.04,10.71,8.79,24.96,18.47,42.37,28.79,1.37.8,2.84,1.21,4.37,1.21,2.03,0,3.93-.74,5.49-2.13,1.56-1.39,2.51-3.18,2.75-5.19.35-2.84-.85-5.33-3.31-6.85"/>
      <path class="cls-1" d="m334.28,31.22c-.67-.93-2.25-2.49-5.37-2.49s-5.56,1.7-6.63,4.56l-4.62,12.58c-1.1,2.89-.17,4.91.48,5.86.81,1.18,2.44,2.6,5.57,2.6,5.41,0,7.63-6.51,8.58-9.29,1.2-3.52,2.1-6.25,2.64-8.08.95-2.87,0-4.83-.66-5.74"/>
      <path class="cls-1" d="m345.77,49.77l4.62-12.58c1.12-2.9.18-4.93-.47-5.88-.66-.96-2.25-2.58-5.48-2.58s-5.56,1.69-6.6,4.49c-2.51,6.52-4.05,10.72-4.7,12.81-.99,2.9-.03,4.88.64,5.81.67.93,2.25,2.49,5.37,2.49s5.56-1.7,6.63-4.56"/>
      <path class="cls-1" d="m353.35,81.43c-2.55,0-4.87.87-6.91,2.59-2.1,1.77-3.33,4.03-3.65,6.71-.34,2.75.48,5.26,2.37,7.26,1.81,1.93,4.2,2.95,6.91,2.95s4.99-.88,7-2.63c2.04-1.77,3.23-3.95,3.54-6.48.45-3.66-.94-6.07-2.19-7.45-1.23-1.35-3.44-2.95-7.06-2.95"/>
      <path class="cls-1" d="m396.56,5.13c-1.56-1.32-3.52-2.02-5.66-2.02-3.77,0-6.74,1.89-8.15,5.18l-26.02,59.34-.08.19c-.22.58-.36,1.18-.44,1.79-.34,2.78.65,4.57,1.55,5.58.91,1.03,2.61,2.26,5.55,2.26s5.54-1.63,6.88-4.47l28.17-58.99c.36-.8.6-1.63.7-2.46.3-2.44-.61-4.77-2.51-6.38"/>
      <path class="cls-1" d="m81.66,29.24c-.09,0-.18,0-.24,0l-19.74.15.47-4.61c10.54-.1,17.22-.15,20.38-.15,4.35,0,7.38-2.66,7.91-6.93.33-2.7-.66-4.47-1.54-5.47-.93-1.05-2.66-2.29-5.69-2.29-5.22,0-11.87.07-19.78.2.08-.93.16-1.7.24-2.32v-.12c.25-2.74-.78-4.5-1.68-5.48-1.33-1.45-3.24-2.21-5.54-2.21-4.51,0-7.7,2.85-7.92,7.07l-.24,3.33c-16.21.29-27.89.56-34.68.79-3.96.03-6.83,2.63-7.32,6.64-.36,2.96.64,4.81,1.55,5.83.86.97,2.43,2.13,5.02,2.13.12,0,.25,0,.26,0l33.96-.75c-.13,1.35-.27,2.83-.43,4.45-13.48.19-23.19.46-35.26.82-4.15.14-7.04,2.72-7.53,6.73-.34,2.78.65,4.56,1.54,5.57.89,1,2.53,2.2,5.31,2.2.11,0,.22,0,.35,0,9.67-.34,18.86-.59,34.08-.73-.03.26-.05.49-.08.69l-.71,5.77c-3.76-.71-7.56-1.08-11.34-1.08-7.71,0-14.59,1.82-20.45,5.41C5.34,59.28,1.19,65.54.21,73.46c-.96,7.79,1.29,14.04,6.7,18.57,4.62,3.84,10.74,5.79,18.18,5.79,9.04,0,16.5-2.76,22.14-8.19,4.91-4.61,8.11-10.81,9.53-18.5,4.47,2.77,9.32,6.46,14.46,11.01,1.31,1.36,3.02,2.07,4.95,2.07,2.09,0,3.99-.82,5.49-2.36,1.34-1.38,2.13-2.98,2.35-4.77.21-1.73-.1-4.31-2.82-6.8-7.48-6.6-15-11.65-22.39-15.05l1.04-8.46.02-.24c.04-.63.11-1.5.24-2.58,5.65-.08,12.13-.12,20.7-.12,4.29,0,7.28-2.62,7.8-6.83.34-2.76-.65-4.54-1.54-5.55-.9-1.01-2.56-2.22-5.41-2.22m-55.87,53.8c-3.68,0-6.59-.77-8.65-2.28-1.96-1.45-2.65-3.3-2.3-6.17.42-3.42,2.27-5.95,5.82-7.92,3.37-1.86,7.3-2.8,11.7-2.8,3.37,0,6.79.42,10.19,1.25-1.58,12.4-6.75,17.93-16.76,17.93"/>
      <path class="cls-1" d="m150.17,83.66c-17.63-10.27-31.51-19.37-41.26-27.04-2.92-2.31-3.84-4.03-3.75-4.81,0-.02.44-2.41,8.59-6.96,17.12-9.47,33.23-17.53,47.88-23.95,2.74-1.23,4.51-3.57,4.86-6.43.36-2.94-.68-4.82-1.62-5.88-.95-1.08-2.74-2.36-5.85-2.36-1.25,0-2.54.35-3.91,1.04-18.04,8.56-34.64,17.15-49.34,25.54-10.35,5.97-15.75,11.85-16.51,17.99-.47,3.84.45,7.47,2.77,10.84l.12.17c1.22,1.58,3.3,3.55,6.34,6.04,10.71,8.79,24.96,18.47,42.37,28.79,1.37.8,2.84,1.21,4.38,1.21,2.03,0,3.93-.74,5.49-2.13,1.55-1.39,2.51-3.18,2.75-5.19.35-2.84-.85-5.33-3.32-6.85"/>
      <path class="cls-1" d="m158.15,31.22c-.67-.93-2.25-2.49-5.37-2.49s-5.56,1.7-6.63,4.56l-4.62,12.58c-1.11,2.89-.18,4.91.48,5.86.81,1.18,2.44,2.6,5.57,2.6,5.41,0,7.63-6.51,8.58-9.29,1.2-3.52,2.1-6.25,2.64-8.07.95-2.86,0-4.83-.66-5.74"/>
      <path class="cls-1" d="m168.31,28.73c-3.09,0-5.56,1.69-6.6,4.49-2.51,6.52-4.06,10.73-4.7,12.81-.99,2.9-.02,4.88.64,5.81.67.93,2.25,2.49,5.37,2.49s5.56-1.7,6.63-4.56l4.62-12.58c1.11-2.9.18-4.93-.47-5.88-.66-.96-2.25-2.58-5.48-2.58"/>
    </g>
  </g>
</svg>